<?xml version="1.0" encoding="utf-8"?>
<!-- Generator: Adobe Illustrator 27.0.1, SVG Export Plug-In . SVG Version: 6.00 Build 0)  -->
<svg version="1.1" id="Camada_1" xmlns="http://www.w3.org/2000/svg" xmlns:xlink="http://www.w3.org/1999/xlink" x="0px" y="0px"
	 viewBox="0 0 855.3 396.4" style="enable-background:new 0 0 855.3 396.4;" xml:space="preserve">
<style type="text/css">
	.st0{opacity:0.4;fill:#E6007E;}
	.st1{opacity:0.4;fill:#009640;}
	.st2{fill:#FFFFFF;}
	.st3{opacity:0.4;fill:#1D71B8;}
	.st4{stroke:#3192D0;stroke-width:6;stroke-miterlimit:10;}
	.st5{fill:#1D71B8;stroke:#36A9E1;stroke-width:0.75;stroke-miterlimit:10;}
	.st6{fill:#1D71B8;}
	.st7{fill:#1D71B8;stroke:#36A9E1;stroke-miterlimit:10;}
	.st8{fill:#1D71B8;stroke:#36A9E1;stroke-width:0.5;stroke-miterlimit:10;}
</style>
<g>
	<g>
		<g>
			<g>
				<path d="M467,231c2.8,0,5-0.9,6.3-2.7c1.4-1.8,2.1-4.4,2.1-7.8v-55.6h7.6v55.2c0,5.8-1.4,10.3-4.1,13.5
					c-2.7,3.3-6.8,4.9-12.3,4.9c-5.4,0-9.5-1.6-12.2-4.9c-2.7-3.3-4.1-7.8-4.1-13.5v-55.2h8v55.6C458.4,227.5,461.3,231,467,231z"/>
			</g>
			<g>
				<path d="M503.5,172.3h-13.4v-7.4h34.8v7.4h-13.4v65.4h-8V172.3z"/>
			</g>
			<g>
				<path d="M540.6,237.7h-8.1v-72.7h8.1V237.7z"/>
			</g>
			<g>
				<path d="M551,164.9h8.1v65.4h20.8v7.4H551V164.9z"/>
			</g>
			<g>
				<path d="M596.2,237.7h-8.1v-72.7h8.1V237.7z"/>
			</g>
			<g>
				<path d="M636.1,169.6c2.7,3.2,4.1,7.6,4.1,13.4v36.7c0,5.7-1.4,10.1-4.1,13.2c-2.7,3.2-6.9,4.7-12.4,4.7h-17v-72.7h17
					C629.2,164.9,633.3,166.5,636.1,169.6z M632.2,220v-37.4c0-6.9-2.9-10.3-8.7-10.3h-8.7v58h8.8
					C629.3,230.3,632.2,226.8,632.2,220z"/>
			</g>
			<g>
				<path d="M655.1,237.7h-7.5l13.9-72.7h11.7l13.9,72.7h-8.1l-2.8-14.7h-18.4L655.1,237.7z M675.2,216l-8.2-42l-8,42H675.2z"/>
			</g>
			<g>
				<path d="M725.1,169.6c2.7,3.2,4.1,7.6,4.1,13.4v36.7c0,5.7-1.4,10.1-4.1,13.2c-2.7,3.2-6.9,4.7-12.4,4.7h-17v-72.7h17
					C718.2,164.9,722.4,166.5,725.1,169.6z M721.2,220v-37.4c0-6.9-2.9-10.3-8.7-10.3h-8.7v58h8.8
					C718.3,230.3,721.2,226.8,721.2,220z"/>
			</g>
			<g>
				<path d="M764.8,204.4H747v25.9h21.8v7.4h-29.9v-72.7h29.9v7.4H747v24.8h17.8V204.4z"/>
			</g>
			<g>
				<path d="M805.7,169c2.7,3.2,4.1,7.7,4.1,13.4v2h-7.7V182c0-6.9-2.8-10.4-8.3-10.4c-5.5,0-8.3,3.4-8.3,10.3
					c0,3.5,0.9,6.4,2.8,8.8c1.9,2.4,4.7,5,8.4,7.9c3,2.5,5.3,4.6,7,6.3c1.7,1.7,3.2,3.9,4.4,6.4c1.2,2.6,1.8,5.5,1.8,8.8
					c0,5.7-1.4,10.1-4.2,13.4c-2.8,3.2-6.9,4.8-12.3,4.8c-5.4,0-9.5-1.6-12.2-4.8c-2.7-3.2-4.1-7.7-4.1-13.4V216h7.6v4.6
					c0,3.3,0.7,5.9,2.1,7.7c1.4,1.8,3.5,2.7,6.4,2.7c2.8,0,5-0.9,6.4-2.7c1.4-1.8,2.1-4.4,2.1-7.7c0-3.4-0.9-6.3-2.8-8.6
					c-1.8-2.4-4.6-5-8.4-8c-2.8-2.4-5.1-4.4-6.9-6.2c-1.8-1.8-3.3-3.9-4.5-6.5c-1.2-2.6-1.8-5.6-1.8-8.9c0-5.7,1.4-10.2,4.1-13.4
					c2.7-3.2,6.7-4.8,12.1-4.8C799,164.2,803,165.8,805.7,169z"/>
			</g>
		</g>
	</g>
	<path class="st0" d="M195.7,85.9l-57.3-31.1l-91,221l28.4,11.9l34.5-84.1l55.8,21.6l0.8,101.5l29.1,13.2L195.7,85.9z M164.4,158.9
		l-7.5-3l7.7-22.1L164.4,158.9z M127.7,167l23.3-58.3l13.7,7.7l0,5.3l-11.8,34L127.7,167z M128.8,170.8l25.7-11.6l9.8,3.9l-0.2,24.5
		L128.8,170.8z"/>
	<polygon class="st1" points="264.1,213.4 294,203.2 295.1,284.9 352.2,310.4 352.2,265.4 337.5,258 336,230.1 366,245.2 
		364.5,350.9 266.9,301.2 	"/>
	<polygon class="st1" points="266.7,55.8 265.3,146.5 293.9,162.3 294.9,100.4 364.7,131.7 363.4,103.8 	"/>
	<path class="st2" d="M166.1,188.6l-0.5-24.9l-0.1-4.3l-0.5-26.9l-0.2-11.1l-0.1-5l0-1.7l-13.6-6.3l-2.6-1.2l-23.2,60.8l-0.3,0.9
		l1.7,0.8l2.2,1h0l25.7-11.6l9.8,3.9l-0.2,24.5L166.1,188.6z M127.7,167l23.3-58.3l13.7,7.7l0,5.3l-11.8,34L127.7,167z M156.9,155.9
		l7.7-22.1l-0.2,25.1L156.9,155.9z"/>
	<polygon class="st3" points="196.8,85.8 225.5,75.7 228.2,187.5 294.7,165.2 297.4,101.2 323.2,113.7 324.6,271.2 296.5,281.3 
		296.2,205.1 226.6,228.9 226.8,333.6 197.3,339.8 	"/>
	<g>
		<rect x="293.9" y="98.6" transform="matrix(1 -3.207131e-03 3.207131e-03 1 -0.419 0.9495)" width="3.9" height="65"/>
	</g>
	<g>
		<polygon points="364.5,135.4 294.9,100.4 296.6,96.9 366.2,131.8 		"/>
	</g>
	<g>
		<polygon points="366,135.5 364.7,131.7 394.5,121.6 395.7,125.3 		"/>
	</g>
	<g>
		<rect x="393.2" y="93.7" width="3.9" height="29.8"/>
	</g>
	<g>
		<polygon points="394.2,95.4 295.7,46 266.7,55.8 265.5,52.1 296,41.8 396,91.9 		"/>
	</g>
	<g>
		<rect x="363.4" y="103.8" width="3.9" height="29.8"/>
	</g>
	<g>
		<polygon points="349.4,267.2 334.7,259.8 336.4,256.3 351.1,263.6 		"/>
	</g>
	<g>
		<rect x="333.5" y="228.2" transform="matrix(1 -3.313628e-03 3.313628e-03 1 -0.8038 1.1129)" width="3.9" height="29.8"/>
	</g>
	<g>
		<polygon points="364.5,245.1 334.5,230 336.3,226.4 366.2,241.6 		"/>
	</g>
	<g>
		<polygon points="366,245.2 364.7,241.5 394.5,231.3 395.7,235.1 		"/>
	</g>
	<g>
		<polygon points="227.2,189.2 226,185.5 295.3,161.7 296.6,165.5 		"/>
	</g>
	<g>
		<polygon points="166.1,188.6 165.2,190.5 165.1,190.5 164.4,192.1 123.3,172.5 124.9,169 126.6,169.8 128.8,170.8 128.8,170.8 
			164.1,187.6 		"/>
	</g>
	<g>
		<polygon points="164.4,228.8 110.3,203.7 111.9,200.1 166.1,225.2 		"/>
	</g>
	<g>
		<polygon points="167.1,160 165.6,163.7 165.6,163.7 164.3,163.1 154.5,159.2 153.7,158.9 155.2,155.2 156.9,155.9 164.4,158.9 
			165.5,159.4 		"/>
	</g>
	<polygon points="47.3,275.8 134.8,53.3 138.4,54.8 51,277.3 47.3,275.8 	"/>
	<g>
		<path class="st4" d="M105,281.8"/>
	</g>
	<g>
		<path class="st4" d="M132.3,211.4"/>
	</g>
	<g>
		<polygon points="78.4,290.4 74.8,288.9 109.8,201.4 113.4,202.8 		"/>
	</g>
	<g>
		<polygon points="106.8,281.7 103.2,280.3 130.5,210.7 134.1,212.1 		"/>
	</g>
	<g>
		<polygon points="168.5,122.6 165.1,132.5 164.6,133.8 156.9,155.9 156,158.5 154.5,159.2 128.8,170.8 128.8,170.8 124.9,172.6 
			124.1,170.8 123.3,168.9 125.3,168.1 127.7,167 152.9,155.6 164.7,121.6 164.8,121.3 164.9,121.4 		"/>
	</g>
	<g>
		<polygon points="167.9,113.7 167.4,114.7 166.1,117.1 164.8,116.4 164.7,116.4 151,108.6 148.5,107.2 149.6,105.2 150.4,103.8 		
			"/>
	</g>
	<g>
		<polygon points="227.2,163.7 226,160 265.3,146.5 266.5,150.3 		"/>
	</g>
	<g>
		<polygon points="227,228.9 225.7,225.1 295.3,201.3 296.6,205.1 		"/>
	</g>
	<g>
		<rect x="348.3" y="265.4" width="3.9" height="45"/>
	</g>
	<g>
		<polygon points="336,230.1 334.8,226.3 364.7,216.4 365.9,220.2 		"/>
	</g>
	<g>
		<polygon points="197.1,85.8 195.9,82.1 225.8,72.2 227,76 		"/>
	</g>
	<g>
		<polygon points="137.2,55.9 136,52.2 166.4,42.1 167.6,45.8 		"/>
	</g>
	<g>
		<polygon points="366,105.7 364.7,102 394.5,91.8 395.7,95.5 		"/>
	</g>
	<g>
		<polygon points="364.5,105.6 265.3,55.7 267,52.2 366.2,102.1 		"/>
	</g>
	<g>
		<rect x="264.2" y="54" width="3.9" height="94.4"/>
	</g>
	<g>
		<polygon points="225.8,75.7 166,45.7 167.7,42.1 227.5,72.1 		"/>
	</g>
	<g>
		<polygon points="195.7,85.9 135.7,55.8 137.4,52.3 197.4,82.4 		"/>
	</g>
	<g>
		<rect x="264.1" y="213.4" width="3.9" height="89.6"/>
	</g>
	<g>
		<polygon points="364.3,354.6 265.2,304.8 266.9,301.2 366,351 		"/>
	</g>
	<g>
		<polygon points="365.8,354.7 364.5,350.9 394.5,340 395.9,343.7 		"/>
	</g>
	<g>
		<polygon points="393.3,341.9 393.2,263 393.2,233.2 397,233.2 397,263 397.2,341.9 		"/>
	</g>
	<g>
		<polygon points="394.2,235 364.4,220.1 366.1,216.6 396,231.4 		"/>
	</g>
	<g>
		<polygon points="75.7,291.5 48.4,278.1 50.1,274.5 77.4,288 		"/>
	</g>
	<g>
		<path class="st4" d="M76.6,289.7"/>
	</g>
	<g>
		<polygon points="196,343.4 164.1,328.6 165.7,325.1 197.6,339.8 		"/>
	</g>
	<g>
		<rect x="363.4" y="243.4" width="3.9" height="109.4"/>
	</g>
	<g>
		<polygon points="349.4,312.2 295.1,284.9 296.8,281.3 351.1,308.7 		"/>
	</g>
	<g>
		<rect x="294" y="203.2" width="3.9" height="79.9"/>
	</g>
	<g>
		<rect x="323.6" y="113.7" width="3.9" height="159.3"/>
	</g>
	<g>
		<polygon points="296.6,285 295.3,281.2 325,271.2 326.2,274.9 		"/>
	</g>
	<g>
		<polygon points="349.4,287.2 324.7,274.8 326.4,271.3 351.1,283.6 		"/>
	</g>
	<g>
		<polygon points="295.1,165.2 265.2,150.2 266.9,146.6 296.8,161.6 		"/>
	</g>
	<g>
		<polygon points="197.2,343.7 196,339.9 226,329.8 227.2,333.6 		"/>
	</g>
	<g>
		<polygon points="76.8,291.5 75.8,287.7 104.5,279.9 105.5,283.7 		"/>
	</g>
	<g>
		<rect x="224.6" y="74.1" width="3.9" height="113.5"/>
	</g>
	<g>
		<rect x="224.6" y="226.9" width="3.9" height="104.8"/>
	</g>
	<g>
		<rect x="194.7" y="84" width="3.9" height="257.9"/>
	</g>
	<g>
		<polygon points="168.6,114.7 168,190.6 165.2,190.5 165.1,190.5 164.1,190.5 164.1,187.6 164.3,163.1 164.4,158.9 164.6,133.8 
			164.7,121.6 164.7,116.4 164.7,114.7 167.4,114.7 		"/>
	</g>
	<g>
		<path class="st4" d="M166,190.6"/>
	</g>
	<g>
		<rect x="115.3" y="274.9" transform="matrix(5.616932e-03 -1 1 5.616932e-03 -112.5421 440.4807)" width="99.8" height="3.9"/>
	</g>
	<g>
		<polygon points="152,106.2 151.1,108.4 151,108.6 127.7,167 126.6,169.8 125.9,171.5 122.3,170 148.4,104.7 149.6,105.2 		"/>
	</g>
	<path class="st5" d="M211.6,84.5"/>
	<path class="st5" d="M199,106.3"/>
	<path class="st5" d="M217.9,95.6"/>
	<path class="st5" d="M205.3,117.4"/>
	<path class="st5" d="M217.9,103.8"/>
	<path class="st6" d="M205.3,125.6"/>
	<path class="st5" d="M217.7,306.1"/>
	<path class="st6" d="M205.2,327.9"/>
	<path class="st5" d="M216.8,299.5"/>
	<path class="st6" d="M204.2,321.3"/>
	<path class="st6" d="M216.8,288.6"/>
	<path class="st5" d="M204.2,310.4"/>
	<path class="st7" d="M317.1,152.7"/>
	<path class="st6" d="M304.5,174.5"/>
	<path class="st6" d="M304.5,186.2"/>
	<path class="st6" d="M321.9,169.7"/>
	<path class="st5" d="M216.5,88.2"/>
	<path class="st5" d="M203.9,110"/>
	<path class="st5" d="M222.8,91.2"/>
	<path class="st5" d="M199.7,319.8"/>
	<path class="st5" d="M217.2,301.7"/>
	<path class="st5" d="M204.6,323.5"/>
	<path class="st5" d="M223.5,304.6"/>
	<path class="st5" d="M210.9,326.4"/>
	<path class="st5" d="M223.5,192.1"/>
	<path class="st5" d="M210.9,213.9"/>
	<path class="st5" d="M228.4,195.9"/>
	<path class="st5" d="M215.8,217.6"/>
	<path class="st5" d="M234.7,198.8"/>
	<path class="st5" d="M222.1,220.6"/>
	<path class="st5" d="M311.5,119.4"/>
	<path class="st5" d="M298.9,141.2"/>
	<path class="st5" d="M316.4,123.1"/>
	<path class="st5" d="M303.8,144.9"/>
	<path class="st5" d="M322.7,126.1"/>
	<path class="st5" d="M310.1,147.9"/>
	<path class="st8" d="M311.5,228.9"/>
	<path class="st8" d="M298.9,250.7"/>
	<path class="st8" d="M303.8,254.4"/>
	<path class="st8" d="M322.7,235.6"/>
	<path class="st8" d="M310.1,257.4"/>
</g>
</svg>
